<?xml version="1.0" encoding="utf-8" standalone="no"?>
<!DOCTYPE svg PUBLIC "-//W3C//DTD SVG 1.1//EN"
  "http://www.w3.org/Graphics/SVG/1.1/DTD/svg11.dtd">
<svg xmlns:xlink="http://www.w3.org/1999/xlink" width="698.4pt" height="558.72pt" viewBox="0 0 698.4 558.72" xmlns="http://www.w3.org/2000/svg" version="1.1">
 <metadata>
  <rdf:RDF xmlns:dc="http://purl.org/dc/elements/1.1/" xmlns:cc="http://creativecommons.org/ns#" xmlns:rdf="http://www.w3.org/1999/02/22-rdf-syntax-ns#">
   <cc:Work>
    <dc:type rdf:resource="http://purl.org/dc/dcmitype/StillImage"/>
    <dc:date>2025-05-26T08:58:28.824109</dc:date>
    <dc:format>image/svg+xml</dc:format>
    <dc:creator>
     <cc:Agent>
      <dc:title>Matplotlib v3.10.3, https://matplotlib.org/</dc:title>
     </cc:Agent>
    </dc:creator>
   </cc:Work>
  </rdf:RDF>
 </metadata>
 <defs>
  <style type="text/css">*{stroke-linejoin: round; stroke-linecap: butt}</style>
 </defs>
 <g id="figure_1">
  <g id="patch_1">
   <path d="M 0 558.72 
L 698.4 558.72 
L 698.4 0 
L 0 0 
L 0 558.72 
z
" style="fill: none; opacity: 0"/>
  </g>
  <g id="axes_1">
   <g id="patch_2">
    <path d="M 579.641952 242.906826 
C 592.871798 242.906826 605.561565 238.701807 614.916479 231.217876 
C 624.271393 223.733945 629.527666 213.582131 629.527666 202.998255 
C 629.527666 192.414378 624.271393 182.262564 614.916479 174.778633 
C 605.561565 167.294702 592.871798 163.089683 579.641952 163.089683 
C 566.412106 163.089683 553.722339 167.294702 544.367425 174.778633 
C 535.012511 182.262564 529.756238 192.414378 529.756238 202.998255 
C 529.756238 213.582131 535.012511 223.733945 544.367425 231.217876 
C 553.722339 238.701807 566.412106 242.906826 579.641952 242.906826 
L 579.641952 242.906826 
z
" clip-path="url(#pc9e15279b1)" style="fill: none; stroke: #3e2723; stroke-width: 4; stroke-linejoin: miter"/>
   </g>
   <g id="patch_3">
    <path d="M 444.652182 134.91501 
C 457.882028 134.91501 470.571795 130.709991 479.926709 123.22606 
C 489.281623 115.742129 494.537896 105.590315 494.537896 95.006438 
C 494.537896 84.422562 489.281623 74.270748 479.926709 66.786817 
C 470.571795 59.302886 457.882028 55.097867 444.652182 55.097867 
C 431.422336 55.097867 418.732569 59.302886 409.377655 66.786817 
C 400.022741 74.270748 394.766468 84.422562 394.766468 95.006438 
C 394.766468 105.590315 400.022741 115.742129 409.377655 123.22606 
C 418.732569 130.709991 431.422336 134.91501 444.652182 134.91501 
L 444.652182 134.91501 
z
" clip-path="url(#pc9e15279b1)" style="fill: none; stroke: #3e2723; stroke-width: 4; stroke-linejoin: miter"/>
   </g>
   <g id="patch_4">
    <path d="M 253.747818 134.91501 
C 266.977664 134.91501 279.667431 130.709991 289.022345 123.22606 
C 298.377259 115.742129 303.633532 105.590315 303.633532 95.006438 
C 303.633532 84.422562 298.377259 74.270748 289.022345 66.786817 
C 279.667431 59.302886 266.977664 55.097867 253.747818 55.097867 
C 240.517972 55.097867 227.828205 59.302886 218.473291 66.786817 
C 209.118377 74.270748 203.862104 84.422562 203.862104 95.006438 
C 203.862104 105.590315 209.118377 115.742129 218.473291 123.22606 
C 227.828205 130.709991 240.517972 134.91501 253.747818 134.91501 
L 253.747818 134.91501 
z
" clip-path="url(#pc9e15279b1)" style="fill: none; stroke: #3e2723; stroke-width: 4; stroke-linejoin: miter"/>
   </g>
   <g id="patch_5">
    <path d="M 118.758048 242.906826 
C 131.987894 242.906826 144.677661 238.701807 154.032575 231.217876 
C 163.387489 223.733945 168.643762 213.582131 168.643762 202.998255 
C 168.643762 192.414378 163.387489 182.262564 154.032575 174.778633 
C 144.677661 167.294702 131.987894 163.089683 118.758048 163.089683 
C 105.528202 163.089683 92.838435 167.294702 83.483521 174.778633 
C 74.128607 182.262564 68.872334 192.414378 68.872334 202.998255 
C 68.872334 213.582131 74.128607 223.733945 83.483521 231.217876 
C 92.838435 238.701807 105.528202 242.906826 118.758048 242.906826 
L 118.758048 242.906826 
z
" clip-path="url(#pc9e15279b1)" style="fill: none; stroke: #3e2723; stroke-width: 4; stroke-linejoin: miter"/>
   </g>
   <g id="patch_6">
    <path d="M 118.758048 395.630317 
C 131.987894 395.630317 144.677661 391.425298 154.032575 383.941367 
C 163.387489 376.457436 168.643762 366.305622 168.643762 355.721745 
C 168.643762 345.137869 163.387489 334.986055 154.032575 327.502124 
C 144.677661 320.018193 131.987894 315.813174 118.758048 315.813174 
C 105.528202 315.813174 92.838435 320.018193 83.483521 327.502124 
C 74.128607 334.986055 68.872334 345.137869 68.872334 355.721745 
C 68.872334 366.305622 74.128607 376.457436 83.483521 383.941367 
C 92.838435 391.425298 105.528202 395.630317 118.758048 395.630317 
L 118.758048 395.630317 
z
" clip-path="url(#pc9e15279b1)" style="fill: none; stroke: #3e2723; stroke-width: 4; stroke-linejoin: miter"/>
   </g>
   <g id="patch_7">
    <path d="M 253.747818 503.622133 
C 266.977664 503.622133 279.667431 499.417114 289.022345 491.933183 
C 298.377259 484.449252 303.633532 474.297438 303.633532 463.713562 
C 303.633532 453.129685 298.377259 442.977871 289.022345 435.49394 
C 279.667431 428.010009 266.977664 423.80499 253.747818 423.80499 
C 240.517972 423.80499 227.828205 428.010009 218.473291 435.49394 
C 209.118377 442.977871 203.862104 453.129685 203.862104 463.713562 
C 203.862104 474.297438 209.118377 484.449252 218.473291 491.933183 
C 227.828205 499.417114 240.517972 503.622133 253.747818 503.622133 
L 253.747818 503.622133 
z
" clip-path="url(#pc9e15279b1)" style="fill: none; stroke: #3e2723; stroke-width: 4; stroke-linejoin: miter"/>
   </g>
   <g id="patch_8">
    <path d="M 444.652182 503.622133 
C 457.882028 503.622133 470.571795 499.417114 479.926709 491.933183 
C 489.281623 484.449252 494.537896 474.297438 494.537896 463.713562 
C 494.537896 453.129685 489.281623 442.977871 479.926709 435.49394 
C 470.571795 428.010009 457.882028 423.80499 444.652182 423.80499 
C 431.422336 423.80499 418.732569 428.010009 409.377655 435.49394 
C 400.022741 442.977871 394.766468 453.129685 394.766468 463.713562 
C 394.766468 474.297438 400.022741 484.449252 409.377655 491.933183 
C 418.732569 499.417114 431.422336 503.622133 444.652182 503.622133 
L 444.652182 503.622133 
z
" clip-path="url(#pc9e15279b1)" style="fill: none; stroke: #3e2723; stroke-width: 4; stroke-linejoin: miter"/>
   </g>
   <g id="patch_9">
    <path d="M 579.641952 395.630317 
C 592.871798 395.630317 605.561565 391.425298 614.916479 383.941367 
C 624.271393 376.457436 629.527666 366.305622 629.527666 355.721745 
C 629.527666 345.137869 624.271393 334.986055 614.916479 327.502124 
C 605.561565 320.018193 592.871798 315.813174 579.641952 315.813174 
C 566.412106 315.813174 553.722339 320.018193 544.367425 327.502124 
C 535.012511 334.986055 529.756238 345.137869 529.756238 355.721745 
C 529.756238 366.305622 535.012511 376.457436 544.367425 383.941367 
C 553.722339 391.425298 566.412106 395.630317 579.641952 395.630317 
L 579.641952 395.630317 
z
" clip-path="url(#pc9e15279b1)" style="fill: none; stroke: #3e2723; stroke-width: 4; stroke-linejoin: miter"/>
   </g>
   <g id="line2d_1">
    <path d="M 598.628571 279.36 
L 598.628106 278.974336 
L 598.626708 278.588673 
L 598.624379 278.203014 
L 598.621118 277.817358 
L 598.616925 277.431709 
L 598.6118 277.046066 
L 598.605744 276.660433 
L 598.598756 276.274809 
L 598.590837 275.889197 
L 598.581986 275.503597 
L 598.572204 275.118013 
L 598.561489 274.732444 
L 598.549844 274.346892 
L 598.537267 273.961359 
L 598.523759 273.575846 
L 598.509319 273.190355 
L 598.493948 272.804887 
L 598.477646 272.419444 
L 598.460412 272.034026 
L 598.442248 271.648635 
L 598.423152 271.263274 
L 598.403125 270.877943 
L 598.382168 270.492643 
L 598.36028 270.107377 
L 598.337461 269.722145 
L 598.313711 269.336949 
L 598.289031 268.95179 
L 598.26342 268.566671 
L 598.236879 268.181591 
L 598.209408 267.796554 
L 598.181006 267.41156 
L 598.151675 267.02661 
L 598.121413 266.641706 
L 598.090222 266.25685 
L 598.058101 265.872043 
L 598.02505 265.487286 
L 597.99107 265.102581 
L 597.956161 264.71793 
L 597.920322 264.333333 
L 597.883554 263.948792 
L 597.845857 263.564308 
L 597.807232 263.179884 
L 597.767678 262.79552 
L 597.727195 262.411218 
L 597.685784 262.02698 
L 597.643444 261.642806 
L 597.600177 261.258698 
L 597.555982 260.874658 
L 597.510859 260.490687 
L 597.464808 260.106786 
L 597.41783 259.722958 
L 597.369925 259.339202 
L 597.321093 258.955522 
L 597.271334 258.571917 
L 597.220648 258.188391 
L 597.169036 257.804943 
L 597.116497 257.421576 
L 597.063033 257.038291 
L 597.008642 256.655089 
L 596.953326 256.271973 
L 596.897085 255.888942 
L 596.839918 255.505999 
L 596.781826 255.123145 
L 596.722809 254.740382 
L 596.662868 254.35771 
L 596.602002 253.975132 
L 596.540212 253.592649 
L 596.477498 253.210262 
L 596.41386 252.827973 
L 596.349299 252.445783 
L 596.283815 252.063693 
L 596.217408 251.681706 
L 596.150078 251.299822 
L 596.081825 250.918042 
L 596.012651 250.536369 
L 595.942554 250.154804 
L 595.871536 249.773347 
L 595.799596 249.392001 
L 595.726735 249.010767 
L 595.652953 248.629647 
L 595.578251 248.248641 
L 595.502628 247.867752 
L 595.426085 247.48698 
L 595.348623 247.106327 
L 595.27024 246.725795 
L 595.190939 246.345384 
L 595.110719 245.965097 
L 595.02958 245.584935 
L 594.947523 245.204898 
L 594.864548 244.82499 
L 594.780655 244.44521 
L 594.695845 244.065561 
L 594.610118 243.686044 
L 594.523474 243.306659 
L 594.435914 242.92741 
L 594.347438 242.548297 
L 594.258045 242.169321 
L 594.167738 241.790484 
L 594.076515 241.411787 
" clip-path="url(#pc9e15279b1)" style="fill: none; stroke: #3e2723; stroke-width: 4; stroke-linecap: square"/>
   </g>
   <g id="line2d_2">
    <path d="M 555.895643 167.670363 
L 555.354433 167.032017 
L 554.810142 166.395349 
L 554.262779 165.76037 
L 553.712353 165.127087 
L 553.15887 164.495512 
L 552.60234 163.865653 
L 552.042771 163.237519 
L 551.480171 162.611121 
L 550.914548 161.986467 
L 550.345911 161.363567 
L 549.774269 160.74243 
L 549.19963 160.123066 
L 548.622003 159.505483 
L 548.041396 158.889691 
L 547.457817 158.275698 
L 546.871277 157.663516 
L 546.281783 157.053151 
L 545.689344 156.444614 
L 545.093969 155.837914 
L 544.495667 155.233059 
L 543.894447 154.630059 
L 543.290318 154.028923 
L 542.683288 153.429659 
L 542.073368 152.832277 
L 541.460566 152.236786 
L 540.844891 151.643194 
L 540.226353 151.05151 
L 539.60496 150.461744 
L 538.980723 149.873903 
L 538.353649 149.287997 
L 537.72375 148.704035 
L 537.091033 148.122025 
L 536.455509 147.541976 
L 535.817187 146.963897 
L 535.176077 146.387796 
L 534.532187 145.813681 
L 533.885529 145.241562 
L 533.236111 144.671448 
L 532.583943 144.103345 
L 531.929035 143.537264 
L 531.271397 142.973212 
L 530.611038 142.411198 
L 529.947969 141.85123 
L 529.282199 141.293317 
L 528.613738 140.737467 
L 527.942596 140.183688 
L 527.268784 139.631989 
L 526.592311 139.082377 
L 525.913187 138.534862 
L 525.231423 137.98945 
L 524.547028 137.446152 
L 523.860014 136.904973 
L 523.17039 136.365923 
L 522.478166 135.82901 
L 521.783354 135.294241 
L 521.085962 134.761625 
L 520.386003 134.231169 
L 519.683485 133.702882 
L 518.97842 133.176772 
L 518.270818 132.652845 
L 517.56069 132.131111 
L 516.848047 131.611577 
L 516.132898 131.09425 
L 515.415255 130.579139 
L 514.695129 130.06625 
L 513.97253 129.555593 
L 513.247469 129.047174 
L 512.519956 128.541 
L 511.790003 128.037081 
L 511.057621 127.535422 
L 510.322821 127.036032 
L 509.585612 126.538918 
L 508.846008 126.044087 
L 508.104018 125.551547 
L 507.359654 125.061305 
L 506.612926 124.573369 
L 505.863847 124.087746 
L 505.112426 123.604443 
L 504.358676 123.123467 
L 503.602608 122.644825 
L 502.844232 122.168525 
L 502.083561 121.694574 
L 501.320605 121.222979 
L 500.555377 120.753746 
L 499.787887 120.286884 
L 499.018147 119.822398 
L 498.246168 119.360296 
L 497.471962 118.900585 
L 496.695541 118.443271 
L 495.916916 117.988362 
L 495.136099 117.535864 
L 494.353101 117.085783 
L 493.567934 116.638128 
L 492.78061 116.192904 
L 491.991141 115.750118 
L 491.199538 115.309777 
L 490.405813 114.871886 
L 489.609979 114.436454 
L 488.812047 114.003486 
" clip-path="url(#pc9e15279b1)" style="fill: none; stroke: #3e2723; stroke-width: 4; stroke-linecap: square"/>
   </g>
   <g id="line2d_3">
    <path d="M 396.635266 83.458788 
L 395.688349 83.313564 
L 394.740737 83.171269 
L 393.792446 83.031906 
L 392.843487 82.895476 
L 391.893877 82.761982 
L 390.943629 82.631425 
L 389.992757 82.503808 
L 389.041275 82.379132 
L 388.089199 82.257399 
L 387.136541 82.138612 
L 386.183316 82.022771 
L 385.229539 81.909879 
L 384.275223 81.799938 
L 383.320383 81.692948 
L 382.365034 81.588912 
L 381.409189 81.48783 
L 380.452862 81.389706 
L 379.496069 81.294539 
L 378.538823 81.202332 
L 377.581138 81.113086 
L 376.62303 81.026802 
L 375.664511 80.943482 
L 374.705598 80.863126 
L 373.746303 80.785736 
L 372.786641 80.711313 
L 371.826627 80.639858 
L 370.866275 80.571373 
L 369.9056 80.505858 
L 368.944614 80.443314 
L 367.983334 80.383742 
L 367.021773 80.327144 
L 366.059946 80.273519 
L 365.097867 80.222869 
L 364.13555 80.175195 
L 363.173011 80.130497 
L 362.210262 80.088775 
L 361.247319 80.050031 
L 360.284196 80.014266 
L 359.320908 79.981478 
L 358.357468 79.95167 
L 357.393891 79.924842 
L 356.430192 79.900993 
L 355.466385 79.880125 
L 354.502484 79.862237 
L 353.538504 79.84733 
L 352.574459 79.835405 
L 351.610364 79.82646 
L 350.646233 79.820497 
L 349.68208 79.817516 
L 348.71792 79.817516 
L 347.753767 79.820497 
L 346.789636 79.82646 
L 345.825541 79.835405 
L 344.861496 79.84733 
L 343.897516 79.862237 
L 342.933615 79.880125 
L 341.969808 79.900993 
L 341.006109 79.924842 
L 340.042532 79.95167 
L 339.079092 79.981478 
L 338.115804 80.014266 
L 337.152681 80.050031 
L 336.189738 80.088775 
L 335.226989 80.130497 
L 334.26445 80.175195 
L 333.302133 80.222869 
L 332.340054 80.273519 
L 331.378227 80.327144 
L 330.416666 80.383742 
L 329.455386 80.443314 
L 328.4944 80.505858 
L 327.533725 80.571373 
L 326.573373 80.639858 
L 325.613359 80.711313 
L 324.653697 80.785736 
L 323.694402 80.863126 
L 322.735489 80.943482 
L 321.77697 81.026802 
L 320.818862 81.113086 
L 319.861177 81.202332 
L 318.903931 81.294539 
L 317.947138 81.389706 
L 316.990811 81.48783 
L 316.034966 81.588912 
L 315.079617 81.692948 
L 314.124777 81.799938 
L 313.170461 81.909879 
L 312.216684 82.022771 
L 311.263459 82.138612 
L 310.310801 82.257399 
L 309.358725 82.379132 
L 308.407243 82.503808 
L 307.456371 82.631425 
L 306.506123 82.761982 
L 305.556513 82.895476 
L 304.607554 83.031906 
L 303.659263 83.171269 
L 302.711651 83.313564 
L 301.764734 83.458788 
" clip-path="url(#pc9e15279b1)" style="fill: none; stroke: #3e2723; stroke-width: 4; stroke-linecap: square"/>
   </g>
   <g id="line2d_4">
    <path d="M 209.587953 114.003486 
L 208.790021 114.436454 
L 207.994187 114.871886 
L 207.200462 115.309777 
L 206.408859 115.750118 
L 205.61939 116.192904 
L 204.832066 116.638128 
L 204.046899 117.085783 
L 203.263901 117.535864 
L 202.483084 117.988362 
L 201.704459 118.443271 
L 200.928038 118.900585 
L 200.153832 119.360296 
L 199.381853 119.822398 
L 198.612113 120.286884 
L 197.844623 120.753746 
L 197.079395 121.222979 
L 196.316439 121.694574 
L 195.555768 122.168525 
L 194.797392 122.644825 
L 194.041324 123.123467 
L 193.287574 123.604443 
L 192.536153 124.087746 
L 191.787074 124.573369 
L 191.040346 125.061305 
L 190.295982 125.551547 
L 189.553992 126.044087 
L 188.814388 126.538918 
L 188.077179 127.036032 
L 187.342379 127.535422 
L 186.609997 128.037081 
L 185.880044 128.541 
L 185.152531 129.047174 
L 184.42747 129.555593 
L 183.704871 130.06625 
L 182.984745 130.579139 
L 182.267102 131.09425 
L 181.551953 131.611577 
L 180.83931 132.131111 
L 180.129182 132.652845 
L 179.42158 133.176772 
L 178.716515 133.702882 
L 178.013997 134.231169 
L 177.314038 134.761625 
L 176.616646 135.294241 
L 175.921834 135.82901 
L 175.22961 136.365923 
L 174.539986 136.904973 
L 173.852972 137.446152 
L 173.168577 137.98945 
L 172.486813 138.534862 
L 171.807689 139.082377 
L 171.131216 139.631989 
L 170.457404 140.183688 
L 169.786262 140.737467 
L 169.117801 141.293317 
L 168.452031 141.85123 
L 167.788962 142.411198 
L 167.128603 142.973212 
L 166.470965 143.537264 
L 165.816057 144.103345 
L 165.163889 144.671448 
L 164.514471 145.241562 
L 163.867813 145.813681 
L 163.223923 146.387796 
L 162.582813 146.963897 
L 161.944491 147.541976 
L 161.308967 148.122025 
L 160.67625 148.704035 
L 160.046351 149.287997 
L 159.419277 149.873903 
L 158.79504 150.461744 
L 158.173647 151.05151 
L 157.555109 151.643194 
L 156.939434 152.236786 
L 156.326632 152.832277 
L 155.716712 153.429659 
L 155.109682 154.028923 
L 154.505553 154.630059 
L 153.904333 155.233059 
L 153.306031 155.837914 
L 152.710656 156.444614 
L 152.118217 157.053151 
L 151.528723 157.663516 
L 150.942183 158.275698 
L 150.358604 158.889691 
L 149.777997 159.505483 
L 149.20037 160.123066 
L 148.625731 160.74243 
L 148.054089 161.363567 
L 147.485452 161.986467 
L 146.919829 162.611121 
L 146.357229 163.237519 
L 145.79766 163.865653 
L 145.24113 164.495512 
L 144.687647 165.127087 
L 144.137221 165.76037 
L 143.589858 166.395349 
L 143.045567 167.032017 
L 142.504357 167.670363 
" clip-path="url(#pc9e15279b1)" style="fill: none; stroke: #3e2723; stroke-width: 4; stroke-linecap: square"/>
   </g>
   <g id="line2d_5">
    <path d="M 104.323485 241.411787 
L 104.141955 242.169321 
L 103.964086 242.92741 
L 103.789882 243.686044 
L 103.619345 244.44521 
L 103.452477 245.204898 
L 103.289281 245.965097 
L 103.12976 246.725795 
L 102.973915 247.48698 
L 102.821749 248.248641 
L 102.673265 249.010767 
L 102.528464 249.773347 
L 102.387349 250.536369 
L 102.249922 251.299822 
L 102.116185 252.063693 
L 101.98614 252.827973 
L 101.859788 253.592649 
L 101.737132 254.35771 
L 101.618174 255.123145 
L 101.502915 255.888942 
L 101.391358 256.655089 
L 101.283503 257.421576 
L 101.179352 258.188391 
L 101.078907 258.955522 
L 100.98217 259.722958 
L 100.889141 260.490687 
L 100.799823 261.258698 
L 100.714216 262.02698 
L 100.632322 262.79552 
L 100.554143 263.564308 
L 100.479678 264.333333 
L 100.40893 265.102581 
L 100.341899 265.872043 
L 100.278587 266.641706 
L 100.218994 267.41156 
L 100.163121 268.181591 
L 100.110969 268.95179 
L 100.062539 269.722145 
L 100.017832 270.492643 
L 99.976848 271.263274 
L 99.939588 272.034026 
L 99.906052 272.804887 
L 99.876241 273.575846 
L 99.850156 274.346892 
L 99.827796 275.118013 
L 99.809163 275.889197 
L 99.794256 276.660433 
L 99.783075 277.431709 
L 99.775621 278.203014 
L 99.771894 278.974336 
L 99.771894 279.745664 
L 99.775621 280.516986 
L 99.783075 281.288291 
L 99.794256 282.059567 
L 99.809163 282.830803 
L 99.827796 283.601987 
L 99.850156 284.373108 
L 99.876241 285.144154 
L 99.906052 285.915113 
L 99.939588 286.685974 
L 99.976848 287.456726 
L 100.017832 288.227357 
L 100.062539 288.997855 
L 100.110969 289.76821 
L 100.163121 290.538409 
L 100.218994 291.30844 
L 100.278587 292.078294 
L 100.341899 292.847957 
L 100.40893 293.617419 
L 100.479678 294.386667 
L 100.554143 295.155692 
L 100.632322 295.92448 
L 100.714216 296.69302 
L 100.799823 297.461302 
L 100.889141 298.229313 
L 100.98217 298.997042 
L 101.078907 299.764478 
L 101.179352 300.531609 
L 101.283503 301.298424 
L 101.391358 302.064911 
L 101.502915 302.831058 
L 101.618174 303.596855 
L 101.737132 304.36229 
L 101.859788 305.127351 
L 101.98614 305.892027 
L 102.116185 306.656307 
L 102.249922 307.420178 
L 102.387349 308.183631 
L 102.528464 308.946653 
L 102.673265 309.709233 
L 102.821749 310.471359 
L 102.973915 311.23302 
L 103.12976 311.994205 
L 103.289281 312.754903 
L 103.452477 313.515102 
L 103.619345 314.27479 
L 103.789882 315.033956 
L 103.964086 315.79259 
L 104.141955 316.550679 
L 104.323485 317.308213 
" clip-path="url(#pc9e15279b1)" style="fill: none; stroke: #3e2723; stroke-width: 4; stroke-linecap: square"/>
   </g>
   <g id="line2d_6">
    <path d="M 142.504357 391.049637 
L 143.045567 391.687983 
L 143.589858 392.324651 
L 144.137221 392.95963 
L 144.687647 393.592913 
L 145.24113 394.224488 
L 145.79766 394.854347 
L 146.357229 395.482481 
L 146.919829 396.108879 
L 147.485452 396.733533 
L 148.054089 397.356433 
L 148.625731 397.97757 
L 149.20037 398.596934 
L 149.777997 399.214517 
L 150.358604 399.830309 
L 150.942183 400.444302 
L 151.528723 401.056484 
L 152.118217 401.666849 
L 152.710656 402.275386 
L 153.306031 402.882086 
L 153.904333 403.486941 
L 154.505553 404.089941 
L 155.109682 404.691077 
L 155.716712 405.290341 
L 156.326632 405.887723 
L 156.939434 406.483214 
L 157.555109 407.076806 
L 158.173647 407.66849 
L 158.79504 408.258256 
L 159.419277 408.846097 
L 160.046351 409.432003 
L 160.67625 410.015965 
L 161.308967 410.597975 
L 161.944491 411.178024 
L 162.582813 411.756103 
L 163.223923 412.332204 
L 163.867813 412.906319 
L 164.514471 413.478438 
L 165.163889 414.048552 
L 165.816057 414.616655 
L 166.470965 415.182736 
L 167.128603 415.746788 
L 167.788962 416.308802 
L 168.452031 416.86877 
L 169.117801 417.426683 
L 169.786262 417.982533 
L 170.457404 418.536312 
L 171.131216 419.088011 
L 171.807689 419.637623 
L 172.486813 420.185138 
L 173.168577 420.73055 
L 173.852972 421.273848 
L 174.539986 421.815027 
L 175.22961 422.354077 
L 175.921834 422.89099 
L 176.616646 423.425759 
L 177.314038 423.958375 
L 178.013997 424.488831 
L 178.716515 425.017118 
L 179.42158 425.543228 
L 180.129182 426.067155 
L 180.83931 426.588889 
L 181.551953 427.108423 
L 182.267102 427.62575 
L 182.984745 428.140861 
L 183.704871 428.65375 
L 184.42747 429.164407 
L 185.152531 429.672826 
L 185.880044 430.179 
L 186.609997 430.682919 
L 187.342379 431.184578 
L 188.077179 431.683968 
L 188.814388 432.181082 
L 189.553992 432.675913 
L 190.295982 433.168453 
L 191.040346 433.658695 
L 191.787074 434.146631 
L 192.536153 434.632254 
L 193.287574 435.115557 
L 194.041324 435.596533 
L 194.797392 436.075175 
L 195.555768 436.551475 
L 196.316439 437.025426 
L 197.079395 437.497021 
L 197.844623 437.966254 
L 198.612113 438.433116 
L 199.381853 438.897602 
L 200.153832 439.359704 
L 200.928038 439.819415 
L 201.704459 440.276729 
L 202.483084 440.731638 
L 203.263901 441.184136 
L 204.046899 441.634217 
L 204.832066 442.081872 
L 205.61939 442.527096 
L 206.408859 442.969882 
L 207.200462 443.410223 
L 207.994187 443.848114 
L 208.790021 444.283546 
L 209.587953 444.716514 
" clip-path="url(#pc9e15279b1)" style="fill: none; stroke: #3e2723; stroke-width: 4; stroke-linecap: square"/>
   </g>
   <g id="line2d_7">
    <path d="M 301.764734 475.261212 
L 302.711651 475.406436 
L 303.659263 475.548731 
L 304.607554 475.688094 
L 305.556513 475.824524 
L 306.506123 475.958018 
L 307.456371 476.088575 
L 308.407243 476.216192 
L 309.358725 476.340868 
L 310.310801 476.462601 
L 311.263459 476.581388 
L 312.216684 476.697229 
L 313.170461 476.810121 
L 314.124777 476.920062 
L 315.079617 477.027052 
L 316.034966 477.131088 
L 316.990811 477.23217 
L 317.947138 477.330294 
L 318.903931 477.425461 
L 319.861177 477.517668 
L 320.818862 477.606914 
L 321.77697 477.693198 
L 322.735489 477.776518 
L 323.694402 477.856874 
L 324.653697 477.934264 
L 325.613359 478.008687 
L 326.573373 478.080142 
L 327.533725 478.148627 
L 328.4944 478.214142 
L 329.455386 478.276686 
L 330.416666 478.336258 
L 331.378227 478.392856 
L 332.340054 478.446481 
L 333.302133 478.497131 
L 334.26445 478.544805 
L 335.226989 478.589503 
L 336.189738 478.631225 
L 337.152681 478.669969 
L 338.115804 478.705734 
L 339.079092 478.738522 
L 340.042532 478.76833 
L 341.006109 478.795158 
L 341.969808 478.819007 
L 342.933615 478.839875 
L 343.897516 478.857763 
L 344.861496 478.87267 
L 345.825541 478.884595 
L 346.789636 478.89354 
L 347.753767 478.899503 
L 348.71792 478.902484 
L 349.68208 478.902484 
L 350.646233 478.899503 
L 351.610364 478.89354 
L 352.574459 478.884595 
L 353.538504 478.87267 
L 354.502484 478.857763 
L 355.466385 478.839875 
L 356.430192 478.819007 
L 357.393891 478.795158 
L 358.357468 478.76833 
L 359.320908 478.738522 
L 360.284196 478.705734 
L 361.247319 478.669969 
L 362.210262 478.631225 
L 363.173011 478.589503 
L 364.13555 478.544805 
L 365.097867 478.497131 
L 366.059946 478.446481 
L 367.021773 478.392856 
L 367.983334 478.336258 
L 368.944614 478.276686 
L 369.9056 478.214142 
L 370.866275 478.148627 
L 371.826627 478.080142 
L 372.786641 478.008687 
L 373.746303 477.934264 
L 374.705598 477.856874 
L 375.664511 477.776518 
L 376.62303 477.693198 
L 377.581138 477.606914 
L 378.538823 477.517668 
L 379.496069 477.425461 
L 380.452862 477.330294 
L 381.409189 477.23217 
L 382.365034 477.131088 
L 383.320383 477.027052 
L 384.275223 476.920062 
L 385.229539 476.810121 
L 386.183316 476.697229 
L 387.136541 476.581388 
L 388.089199 476.462601 
L 389.041275 476.340868 
L 389.992757 476.216192 
L 390.943629 476.088575 
L 391.893877 475.958018 
L 392.843487 475.824524 
L 393.792446 475.688094 
L 394.740737 475.548731 
L 395.688349 475.406436 
L 396.635266 475.261212 
" clip-path="url(#pc9e15279b1)" style="fill: none; stroke: #3e2723; stroke-width: 4; stroke-linecap: square"/>
   </g>
   <g id="line2d_8">
    <path d="M 488.812047 444.716514 
L 489.609979 444.283546 
L 490.405813 443.848114 
L 491.199538 443.410223 
L 491.991141 442.969882 
L 492.78061 442.527096 
L 493.567934 442.081872 
L 494.353101 441.634217 
L 495.136099 441.184136 
L 495.916916 440.731638 
L 496.695541 440.276729 
L 497.471962 439.819415 
L 498.246168 439.359704 
L 499.018147 438.897602 
L 499.787887 438.433116 
L 500.555377 437.966254 
L 501.320605 437.497021 
L 502.083561 437.025426 
L 502.844232 436.551475 
L 503.602608 436.075175 
L 504.358676 435.596533 
L 505.112426 435.115557 
L 505.863847 434.632254 
L 506.612926 434.146631 
L 507.359654 433.658695 
L 508.104018 433.168453 
L 508.846008 432.675913 
L 509.585612 432.181082 
L 510.322821 431.683968 
L 511.057621 431.184578 
L 511.790003 430.682919 
L 512.519956 430.179 
L 513.247469 429.672826 
L 513.97253 429.164407 
L 514.695129 428.65375 
L 515.415255 428.140861 
L 516.132898 427.62575 
L 516.848047 427.108423 
L 517.56069 426.588889 
L 518.270818 426.067155 
L 518.97842 425.543228 
L 519.683485 425.017118 
L 520.386003 424.488831 
L 521.085962 423.958375 
L 521.783354 423.425759 
L 522.478166 422.89099 
L 523.17039 422.354077 
L 523.860014 421.815027 
L 524.547028 421.273848 
L 525.231423 420.73055 
L 525.913187 420.185138 
L 526.592311 419.637623 
L 527.268784 419.088011 
L 527.942596 418.536312 
L 528.613738 417.982533 
L 529.282199 417.426683 
L 529.947969 416.86877 
L 530.611038 416.308802 
L 531.271397 415.746788 
L 531.929035 415.182736 
L 532.583943 414.616655 
L 533.236111 414.048552 
L 533.885529 413.478438 
L 534.532187 412.906319 
L 535.176077 412.332204 
L 535.817187 411.756103 
L 536.455509 411.178024 
L 537.091033 410.597975 
L 537.72375 410.015965 
L 538.353649 409.432003 
L 538.980723 408.846097 
L 539.60496 408.258256 
L 540.226353 407.66849 
L 540.844891 407.076806 
L 541.460566 406.483214 
L 542.073368 405.887723 
L 542.683288 405.290341 
L 543.290318 404.691077 
L 543.894447 404.089941 
L 544.495667 403.486941 
L 545.093969 402.882086 
L 545.689344 402.275386 
L 546.281783 401.666849 
L 546.871277 401.056484 
L 547.457817 400.444302 
L 548.041396 399.830309 
L 548.622003 399.214517 
L 549.19963 398.596934 
L 549.774269 397.97757 
L 550.345911 397.356433 
L 550.914548 396.733533 
L 551.480171 396.108879 
L 552.042771 395.482481 
L 552.60234 394.854347 
L 553.15887 394.224488 
L 553.712353 393.592913 
L 554.262779 392.95963 
L 554.810142 392.324651 
L 555.354433 391.687983 
L 555.895643 391.049637 
" clip-path="url(#pc9e15279b1)" style="fill: none; stroke: #3e2723; stroke-width: 4; stroke-linecap: square"/>
   </g>
   <g id="line2d_9">
    <path d="M 594.076515 317.308213 
L 594.167738 316.929516 
L 594.258045 316.550679 
L 594.347438 316.171703 
L 594.435914 315.79259 
L 594.523474 315.413341 
L 594.610118 315.033956 
L 594.695845 314.654439 
L 594.780655 314.27479 
L 594.864548 313.89501 
L 594.947523 313.515102 
L 595.02958 313.135065 
L 595.110719 312.754903 
L 595.190939 312.374616 
L 595.27024 311.994205 
L 595.348623 311.613673 
L 595.426085 311.23302 
L 595.502628 310.852248 
L 595.578251 310.471359 
L 595.652953 310.090353 
L 595.726735 309.709233 
L 595.799596 309.327999 
L 595.871536 308.946653 
L 595.942554 308.565196 
L 596.012651 308.183631 
L 596.081825 307.801958 
L 596.150078 307.420178 
L 596.217408 307.038294 
L 596.283815 306.656307 
L 596.349299 306.274217 
L 596.41386 305.892027 
L 596.477498 305.509738 
L 596.540212 305.127351 
L 596.602002 304.744868 
L 596.662868 304.36229 
L 596.722809 303.979618 
L 596.781826 303.596855 
L 596.839918 303.214001 
L 596.897085 302.831058 
L 596.953326 302.448027 
L 597.008642 302.064911 
L 597.063033 301.681709 
L 597.116497 301.298424 
L 597.169036 300.915057 
L 597.220648 300.531609 
L 597.271334 300.148083 
L 597.321093 299.764478 
L 597.369925 299.380798 
L 597.41783 298.997042 
L 597.464808 298.613214 
L 597.510859 298.229313 
L 597.555982 297.845342 
L 597.600177 297.461302 
L 597.643444 297.077194 
L 597.685784 296.69302 
L 597.727195 296.308782 
L 597.767678 295.92448 
L 597.807232 295.540116 
L 597.845857 295.155692 
L 597.883554 294.771208 
L 597.920322 294.386667 
L 597.956161 294.00207 
L 597.99107 293.617419 
L 598.02505 293.232714 
L 598.058101 292.847957 
L 598.090222 292.46315 
L 598.121413 292.078294 
L 598.151675 291.69339 
L 598.181006 291.30844 
L 598.209408 290.923446 
L 598.236879 290.538409 
L 598.26342 290.153329 
L 598.289031 289.76821 
L 598.313711 289.383051 
L 598.337461 288.997855 
L 598.36028 288.612623 
L 598.382168 288.227357 
L 598.403125 287.842057 
L 598.423152 287.456726 
L 598.442248 287.071365 
L 598.460412 286.685974 
L 598.477646 286.300556 
L 598.493948 285.915113 
L 598.509319 285.529645 
L 598.523759 285.144154 
L 598.537267 284.758641 
L 598.549844 284.373108 
L 598.561489 283.987556 
L 598.572204 283.601987 
L 598.581986 283.216403 
L 598.590837 282.830803 
L 598.598756 282.445191 
L 598.605744 282.059567 
L 598.6118 281.673934 
L 598.616925 281.288291 
L 598.621118 280.902642 
L 598.624379 280.516986 
L 598.626708 280.131327 
L 598.628106 279.745664 
L 598.628571 279.36 
" clip-path="url(#pc9e15279b1)" style="fill: none; stroke: #3e2723; stroke-width: 4; stroke-linecap: square"/>
   </g>
  </g>
 </g>
 <defs>
  <clipPath id="pc9e15279b1">
   <rect x="0" y="0" width="698.4" height="558.72"/>
  </clipPath>
 </defs>
</svg>
