<?xml version="1.0" encoding="utf-8" standalone="no"?>
<!DOCTYPE svg PUBLIC "-//W3C//DTD SVG 1.1//EN"
  "http://www.w3.org/Graphics/SVG/1.1/DTD/svg11.dtd">
<svg xmlns:xlink="http://www.w3.org/1999/xlink" width="698.4pt" height="558.72pt" viewBox="0 0 698.4 558.72" xmlns="http://www.w3.org/2000/svg" version="1.1">
 <metadata>
  <rdf:RDF xmlns:dc="http://purl.org/dc/elements/1.1/" xmlns:cc="http://creativecommons.org/ns#" xmlns:rdf="http://www.w3.org/1999/02/22-rdf-syntax-ns#">
   <cc:Work>
    <dc:type rdf:resource="http://purl.org/dc/dcmitype/StillImage"/>
    <dc:date>2025-05-30T08:20:10.710270</dc:date>
    <dc:format>image/svg+xml</dc:format>
    <dc:creator>
     <cc:Agent>
      <dc:title>Matplotlib v3.10.3, https://matplotlib.org/</dc:title>
     </cc:Agent>
    </dc:creator>
   </cc:Work>
  </rdf:RDF>
 </metadata>
 <defs>
  <style type="text/css">*{stroke-linejoin: round; stroke-linecap: butt}</style>
 </defs>
 <g id="figure_1">
  <g id="patch_1">
   <path d="M 0 558.72 
L 698.4 558.72 
L 698.4 0 
L 0 0 
L 0 558.72 
z
" style="fill: none; opacity: 0"/>
  </g>
  <g id="axes_1">
   <g id="line2d_1">
    <path d="M 666.654545 279.36 
L 666.015407 263.252631 
L 664.100564 247.21012 
L 660.917728 231.297066 
L 656.479715 215.577544 
L 650.804395 200.114851 
L 643.91462 184.971251 
L 635.838134 170.207721 
L 626.607457 155.883709 
L 616.259758 142.056892 
L 604.836704 128.782946 
L 592.38429 116.115321 
L 578.95266 104.105025 
L 564.595897 92.800418 
L 549.37181 82.247022 
L 533.341703 72.487329 
L 516.570121 63.56064 
L 499.124599 55.502899 
L 481.075384 48.346551 
L 462.495153 42.120413 
L 443.458723 36.849554 
L 424.042746 32.5552 
L 404.325403 29.254642 
L 384.38609 26.96117 
L 364.305095 25.684018 
L 344.163278 25.428331 
L 324.041741 26.195136 
L 304.021508 27.981347 
L 284.183192 30.779771 
L 264.606677 34.579141 
L 245.370788 39.364156 
L 226.552984 45.115549 
L 208.229035 51.810163 
L 190.472727 59.421039 
L 173.355558 67.917532 
L 156.946452 77.265429 
L 141.311483 87.42709 
L 126.513608 98.361597 
L 112.612413 110.02492 
L 99.663872 122.370096 
L 87.720125 135.347415 
L 76.829266 148.904622 
L 67.035147 162.987126 
L 58.377206 177.538223 
L 50.890306 192.499321 
L 44.604594 207.810175 
L 39.54538 223.409136 
L 35.733036 239.233391 
L 33.182913 255.219222 
L 31.905279 271.302259 
L 31.905279 287.417741 
L 33.182913 303.500778 
L 35.733036 319.486609 
L 39.54538 335.310864 
L 44.604594 350.909825 
L 50.890306 366.220679 
L 58.377206 381.181777 
L 67.035147 395.732874 
L 76.829266 409.815378 
L 87.720125 423.372585 
L 99.663872 436.349904 
L 112.612413 448.69508 
L 126.513608 460.358403 
L 141.311483 471.29291 
L 156.946452 481.454571 
L 173.355558 490.802468 
L 190.472727 499.298961 
L 208.229035 506.909837 
L 226.552984 513.604451 
L 245.370788 519.355844 
L 264.606677 524.140859 
L 284.183192 527.940229 
L 304.021508 530.738653 
L 324.041741 532.524864 
L 344.163278 533.291669 
L 364.305095 533.035982 
L 384.38609 531.75883 
L 404.325403 529.465358 
L 424.042746 526.1648 
L 443.458723 521.870446 
L 462.495153 516.599587 
L 481.075384 510.373449 
L 499.124599 503.217101 
L 516.570121 495.15936 
L 533.341703 486.232671 
L 549.37181 476.472978 
L 564.595897 465.919582 
L 578.95266 454.614975 
L 592.38429 442.604679 
L 604.836704 429.937054 
L 616.259758 416.663108 
L 626.607457 402.836291 
L 635.838134 388.512279 
L 643.91462 373.748749 
L 650.804395 358.605149 
L 656.479715 343.142456 
L 660.917728 327.422934 
L 664.100564 311.50988 
L 666.015407 295.467369 
L 666.654545 279.36 
" clip-path="url(#pca0ec04436)" style="fill: none; stroke: #d32f2f; stroke-width: 48; stroke-linecap: square"/>
   </g>
  </g>
 </g>
 <defs>
  <clipPath id="pca0ec04436">
   <rect x="0" y="0" width="698.4" height="558.72"/>
  </clipPath>
 </defs>
</svg>
