<?xml version="1.0" encoding="utf-8" standalone="no"?>
<!DOCTYPE svg PUBLIC "-//W3C//DTD SVG 1.1//EN"
  "http://www.w3.org/Graphics/SVG/1.1/DTD/svg11.dtd">
<svg xmlns:xlink="http://www.w3.org/1999/xlink" width="698.4pt" height="685.701818pt" viewBox="0 0 698.4 685.701818" xmlns="http://www.w3.org/2000/svg" version="1.1">
 <metadata>
  <rdf:RDF xmlns:dc="http://purl.org/dc/elements/1.1/" xmlns:cc="http://creativecommons.org/ns#" xmlns:rdf="http://www.w3.org/1999/02/22-rdf-syntax-ns#">
   <cc:Work>
    <dc:type rdf:resource="http://purl.org/dc/dcmitype/StillImage"/>
    <dc:date>2025-05-26T08:58:12.874630</dc:date>
    <dc:format>image/svg+xml</dc:format>
    <dc:creator>
     <cc:Agent>
      <dc:title>Matplotlib v3.10.3, https://matplotlib.org/</dc:title>
     </cc:Agent>
    </dc:creator>
   </cc:Work>
  </rdf:RDF>
 </metadata>
 <defs>
  <style type="text/css">*{stroke-linejoin: round; stroke-linecap: butt}</style>
 </defs>
 <g id="figure_1">
  <g id="patch_1">
   <path d="M 0 685.701818 
L 698.4 685.701818 
L 698.4 -0 
L 0 -0 
L 0 685.701818 
z
" style="fill: none; opacity: 0"/>
  </g>
  <g id="axes_1">
   <g id="patch_2">
    <path d="M 31.745455 406.341818 
L 666.654545 406.341818 
L 666.654545 279.36 
L 31.745455 279.36 
z
" clip-path="url(#p8e81dd2214)" style="fill: #ffffff"/>
   </g>
   <g id="patch_3">
    <path d="M 31.745455 406.341818 
C 31.745455 473.67133 65.214295 538.312073 124.725738 585.921228 
C 184.237181 633.530382 265.03811 660.305455 349.2 660.305455 
C 433.36189 660.305455 514.162819 633.530382 573.674262 585.921228 
C 633.185705 538.312073 666.654545 473.67133 666.654545 406.341818 
L 349.2 406.341818 
z
" clip-path="url(#p8e81dd2214)" style="fill: #ffffff"/>
   </g>
   <g id="patch_4">
    <path d="M 349.2 533.323636 
C 433.38993 533.323636 514.142992 506.564426 573.674262 458.939409 
C 633.205532 411.314393 666.654545 346.711944 666.654545 279.36 
C 666.654545 212.008056 633.205532 147.405607 573.674262 99.780591 
C 514.142992 52.155574 433.38993 25.396364 349.2 25.396364 
C 265.01007 25.396364 184.257008 52.155574 124.725738 99.780591 
C 65.194468 147.405607 31.745455 212.008056 31.745455 279.36 
C 31.745455 346.711944 65.194468 411.314393 124.725738 458.939409 
C 184.257008 506.564426 265.01007 533.323636 349.2 533.323636 
z
" clip-path="url(#p8e81dd2214)" style="fill: #ffffff"/>
   </g>
   <g id="line2d_1">
    <path d="M 666.654545 279.36 
L 666.015407 263.252631 
L 664.100564 247.21012 
L 660.917728 231.297066 
L 656.479715 215.577544 
L 650.804395 200.114851 
L 643.91462 184.971251 
L 635.838134 170.207721 
L 626.607457 155.883709 
L 616.259758 142.056892 
L 604.836704 128.782946 
L 592.38429 116.115321 
L 578.95266 104.105025 
L 564.595897 92.800418 
L 549.37181 82.247022 
L 533.341703 72.487329 
L 516.570121 63.56064 
L 499.124599 55.502899 
L 481.075384 48.346551 
L 462.495153 42.120413 
L 443.458723 36.849554 
L 424.042746 32.5552 
L 404.325403 29.254642 
L 384.38609 26.96117 
L 364.305095 25.684018 
L 344.163278 25.428331 
L 324.041741 26.195136 
L 304.021508 27.981347 
L 284.183192 30.779771 
L 264.606677 34.579141 
L 245.370788 39.364156 
L 226.552984 45.115549 
L 208.229035 51.810163 
L 190.472727 59.421039 
L 173.355558 67.917532 
L 156.946452 77.265429 
L 141.311483 87.42709 
L 126.513608 98.361597 
L 112.612413 110.02492 
L 99.663872 122.370096 
L 87.720125 135.347415 
L 76.829266 148.904622 
L 67.035147 162.987126 
L 58.377206 177.538223 
L 50.890306 192.499321 
L 44.604594 207.810175 
L 39.54538 223.409136 
L 35.733036 239.233391 
L 33.182913 255.219222 
L 31.905279 271.302259 
L 31.905279 287.417741 
L 33.182913 303.500778 
L 35.733036 319.486609 
L 39.54538 335.310864 
L 44.604594 350.909825 
L 50.890306 366.220679 
L 58.377206 381.181777 
L 67.035147 395.732874 
L 76.829266 409.815378 
L 87.720125 423.372585 
L 99.663872 436.349904 
L 112.612413 448.69508 
L 126.513608 460.358403 
L 141.311483 471.29291 
L 156.946452 481.454571 
L 173.355558 490.802468 
L 190.472727 499.298961 
L 208.229035 506.909837 
L 226.552984 513.604451 
L 245.370788 519.355844 
L 264.606677 524.140859 
L 284.183192 527.940229 
L 304.021508 530.738653 
L 324.041741 532.524864 
L 344.163278 533.291669 
L 364.305095 533.035982 
L 384.38609 531.75883 
L 404.325403 529.465358 
L 424.042746 526.1648 
L 443.458723 521.870446 
L 462.495153 516.599587 
L 481.075384 510.373449 
L 499.124599 503.217101 
L 516.570121 495.15936 
L 533.341703 486.232671 
L 549.37181 476.472978 
L 564.595897 465.919582 
L 578.95266 454.614975 
L 592.38429 442.604679 
L 604.836704 429.937054 
L 616.259758 416.663108 
L 626.607457 402.836291 
L 635.838134 388.512279 
L 643.91462 373.748749 
L 650.804395 358.605149 
L 656.479715 343.142456 
L 660.917728 327.422934 
L 664.100564 311.50988 
L 666.015407 295.467369 
L 666.654545 279.36 
" clip-path="url(#p8e81dd2214)" style="fill: none; stroke: #3e2723; stroke-width: 12; stroke-linecap: square"/>
   </g>
   <g id="line2d_2">
    <path d="M 31.745455 406.341818 
L 32.397699 422.613324 
L 34.351752 438.817967 
L 37.599584 454.889159 
L 42.127849 470.760859 
L 47.917939 486.367847 
L 54.946062 501.645991 
L 63.183338 516.53251 
L 72.595917 530.966232 
L 83.145122 544.887845 
L 94.787603 558.240143 
L 107.475519 570.968259 
L 121.156734 583.019888 
L 135.775026 594.34551 
L 151.270328 604.898584 
L 167.578966 614.635746 
L 184.633923 623.516984 
L 202.365117 631.505802 
L 220.699688 638.569373 
L 239.562294 644.678671 
L 258.875424 649.808592 
L 278.559718 653.938056 
L 298.534288 657.050094 
L 318.717054 659.131917 
L 339.025081 660.174972 
L 359.374919 660.174972 
L 379.682946 659.131917 
L 399.865712 657.050094 
L 419.840282 653.938056 
L 439.524576 649.808592 
L 458.837706 644.678671 
L 477.700312 638.569373 
L 496.034883 631.505802 
L 513.766077 623.516984 
L 530.821034 614.635746 
L 547.129672 604.898584 
L 562.624974 594.34551 
L 577.243266 583.019888 
L 590.924481 570.968259 
L 603.612397 558.240143 
L 615.254878 544.887845 
L 625.804083 530.966232 
L 635.216662 516.53251 
L 643.453938 501.645991 
L 650.482061 486.367847 
L 656.272151 470.760859 
L 660.800416 454.889159 
L 664.048248 438.817967 
L 666.002301 422.613324 
L 666.654545 406.341818 
" clip-path="url(#p8e81dd2214)" style="fill: none; stroke: #3e2723; stroke-width: 12; stroke-linecap: square"/>
   </g>
   <g id="line2d_3">
    <path d="M 666.654545 406.341818 
L 666.654545 279.36 
" clip-path="url(#p8e81dd2214)" style="fill: none; stroke: #3e2723; stroke-width: 12; stroke-linecap: square"/>
   </g>
   <g id="line2d_4">
    <path d="M 31.745455 406.341818 
L 31.745455 279.36 
" clip-path="url(#p8e81dd2214)" style="fill: none; stroke: #3e2723; stroke-width: 12; stroke-linecap: square"/>
   </g>
  </g>
 </g>
 <defs>
  <clipPath id="p8e81dd2214">
   <rect x="0" y="0" width="698.4" height="685.701818"/>
  </clipPath>
 </defs>
</svg>
